<svg width="36" height="23" fill="none" xmlns="http://www.w3.org/2000/svg">
  <g clip-path="url(#a)">
    <path d="M0 3.004a3 3 0 0 1 3-3h30a3 3 0 0 1 3 3v16a3 3 0 0 1-3 3H3a3 3 0 0 1-3-3v-16Z" fill="#fff" fill-opacity=".8"/>
    <path fill-rule="evenodd" clip-rule="evenodd" d="M29.4 16.161a.62.62 0 0 0 .592.593c.617 0 .875-.603.875-1.117 0-.621-.474-1.14-.92-1.14-.213 0-.392.14-.548.272v1.392Zm0-1.567c.23-.194.541-.413.858-.413.668 0 1.067.582 1.067 1.21 0 .754-.552 1.508-1.377 1.508-.279 0-.554-.07-.8-.201l-.171.133-.119-.062a6.66 6.66 0 0 0 .08-1.025v-2.48c0-.36-.08-.383-.281-.442l-.024-.007v-.09c.205-.066.403-.149.593-.249a.614.614 0 0 1 .128-.064c.035 0 .045.036.045.082v2.1Zm-4.846 2.07h.109c.161 0 .276 0 .276-.192V13.27c0-.361-.079-.384-.281-.443l-.024-.007v-.09c.205-.066.403-.15.594-.249a.622.622 0 0 1 .125-.064c.036 0 .048.036.048.082v3.977c0 .191.127.191.288.191h.097v.15c-.096 0-.194-.003-.293-.006a10.226 10.226 0 0 0-.312-.006c-.207 0-.414 0-.627.012v-.154Zm-.351-2.83h.143l-.058-.82c-.442-.157-.892-.306-1.358-.306-1.13 0-2.182.84-2.182 2.027 0 1.296.851 2.166 2.199 2.166.38 0 1.035-.157 1.272-.306l.133-.847-.133-.035a1.17 1.17 0 0 1-1.157.997c-.886 0-1.716-.835-1.716-1.999 0-1.382.961-1.825 1.624-1.825.64 0 1.123.276 1.233.949Zm-14.85-.54a.282.282 0 1 1 .283-.288.287.287 0 0 1-.282.287Zm-.615 3.37h.11c.16 0 .276 0 .276-.192v-1.56c0-.243-.08-.286-.276-.39l-.024-.013v-.092c.27-.081.593-.19.616-.208a.207.207 0 0 1 .104-.028c.028 0 .04.034.04.08v2.215c0 .19.127.19.288.19h.097v.15c-.096 0-.194-.003-.293-.006a10.5 10.5 0 0 0-.31-.006c-.207 0-.415 0-.628.012v-.153Zm-3.085-.53c0 .443.317.494.6.494 1.243 0 1.651-.938 1.651-1.796 0-1.077-.69-1.855-1.801-1.855-.17 0-.275.01-.359.016a3.04 3.04 0 0 1-.09.008v3.132Zm-.57-2.702c0-.483-.234-.486-.475-.489h-.053v-.144c.224.01.454.01.68.01l.344-.003c.185-.003.405-.007.652-.007 1.49 0 2.303.995 2.303 2.016 0 .57-.334 2.005-2.372 2.005-.15 0-.294-.003-.435-.006a18.34 18.34 0 0 0-.395-.006c-.266 0-.513 0-.771.012v-.15l.017-.001c.333-.035.495-.051.512-.438l-.006-2.799Zm5.102 1.134c.27.11.335.168.335.381l-.001 1.529c0 .19-.115.19-.277.19h-.104v.15c.207-.011.413-.011.621-.011.106 0 .209.003.31.006h.001c.1.003.2.005.3.005v-.15h-.102c-.161 0-.288 0-.288-.19v-1.708c.194-.127.484-.276.669-.276.329 0 .529.16.529.49v1.494c0 .19-.115.19-.276.19h-.105v.15c.208-.011.415-.011.623-.011.104 0 .207.003.309.006.1.003.201.005.302.005v-.15h-.105c-.16 0-.288 0-.288-.19V14.99c0-.45-.172-.807-.66-.807-.387 0-.67.195-.998.432v-.375c0-.046-.017-.057-.034-.057a7.736 7.736 0 0 1-.76.277v.106Zm4.304.472c.143 0 .16-.075.16-.143 0-.293-.18-.53-.502-.53-.356 0-.593.258-.662.673h1.004Zm-1.02.185c-.014.111-.014.223 0 .334.033.548.385.996.845.996.318 0 .566-.173.778-.386l.081.081c-.266.356-.593.651-1.068.651-.915 0-1.1-.887-1.1-1.256 0-1.129.76-1.462 1.163-1.462.466 0 .968.293.974.904a.607.607 0 0 1 0 .104l-.052.034h-1.621Zm1.964 1.44h-.157v.153c.211-.012.438-.012.686-.012.199 0 .393.004.626.008l.179.004v-.15h-.321c-.158 0-.277 0-.277-.19v-1.361a.487.487 0 0 1 .42-.475c.104 0 .154.037.203.073.046.034.09.066.178.066a.28.28 0 0 0 .27-.294.314.314 0 0 0-.328-.305c-.351 0-.593.37-.737.593h-.012v-.518c0-.058-.018-.075-.05-.075-.026 0-.089.033-.191.085-.118.06-.289.148-.513.244v.085c.018.01.042.02.068.03.098.038.23.09.23.23v1.618c0 .19-.114.19-.274.19Zm2.06-.651c.076.38.306.702.727.702.34 0 .465-.207.465-.408 0-.314-.267-.437-.555-.568-.336-.154-.7-.32-.7-.82 0-.323.26-.737.893-.737.229.005.453.063.656.167l.04.587h-.132c-.057-.363-.259-.57-.628-.57-.23 0-.448.132-.448.38 0 .312.287.435.594.567.357.153.741.318.741.803 0 .381-.304.784-.99.784a1.514 1.514 0 0 1-.702-.196l-.064-.662.103-.029Zm10.92.593c-.1 0-.162-.006-.162-.11l-.001-2.126v-.026c.002-.047.002-.077-.047-.077-.02 0-.074.006-.16.015-.152.016-.405.043-.737.066v.103l.08.022c.19.053.402.111.402.215v1.55c-.24.2-.5.35-.696.35-.5 0-.5-.494-.5-.668V14.392c0-.094.001-.125-.064-.125-.028 0-.11.006-.213.013-.172.012-.4.027-.53.027v.11c.323.028.345.172.345.322v1.472c0 .484.323.686.634.686.409 0 .675-.202 1.02-.484v.466l.028.018c.272-.08.55-.14.83-.18V16.6l-.12.003a2.974 2.974 0 0 1-.11.003ZM5.511 20.267c-.075 0-.16-.002-.244-.005a7.404 7.404 0 0 0-.25-.006c-.083 0-.172.003-.257.006a5.942 5.942 0 0 1-.205.005h-.013v-.118H4.6c.119 0 .217-.012.218-.165V18.34c0-.153-.104-.163-.218-.165h-.057v-.119h.013c.055 0 .127.003.203.006.087.003.18.006.262.006.078 0 .164-.003.25-.006.084-.003.168-.006.241-.006h.014v.12h-.058c-.118 0-.217.011-.218.164v1.642c0 .153.104.162.218.165h.058v.118l-.014.002Zm2.33.048h-.13l-1.59-1.777v1.259c0 .272.046.355.282.355h.068v.119h-.015c-.067 0-.135-.003-.203-.006-.067-.003-.134-.006-.201-.006-.066 0-.136.003-.207.006-.073.003-.147.006-.219.006h-.014v-.119h.064c.207 0 .267-.134.27-.383v-1.326a.268.268 0 0 0-.272-.268h-.056v-.119h.014c.06 0 .119.003.178.006.06.003.119.006.178.006.038 0 .075-.002.113-.004.056-.003.114-.006.176-.003l1.377 1.55v-1.155c0-.249-.168-.279-.26-.28h-.081v-.12h.013c.074 0 .148.003.221.006.073.003.145.006.218.006.063 0 .127-.003.19-.006.065-.003.13-.006.195-.006h.017v.12h-.06c-.13 0-.263.013-.268.383v1.424c-.001.105.005.21.02.314v.015l-.018.003Zm2.012-.044c-.054 0-.13-.002-.213-.005a9.752 9.752 0 0 0-.298-.006c-.103 0-.217.003-.318.006-.082.003-.156.006-.21.006H8.8v-.12h.08c.173 0 .237 0 .245-.248v-1.66H8.62v-.002c-.22 0-.228.037-.269.226l-.01.048v.01h-.119v-.015l.011-.07a3.858 3.858 0 0 0 .046-.46v-.014h.1v.01c.02.077.077.079.154.081H10.17c.088 0 .15 0 .156-.085v-.014h.015l.089.014v.014a6.078 6.078 0 0 0-.035.253c-.006.056-.004.111-.002.167l.002.085v.01h-.01l-.11.04v-.018c-.008-.118-.02-.288-.218-.288h-.509v1.656c0 .237.098.253.247.255h.072v.119l-.013.006Zm2.337-.006c-.092 0-.217-.002-.353-.005-.16-.003-.337-.007-.49-.007-.156 0-.342.004-.506.007-.13.003-.246.005-.323.005h-.013v-.119h.056c.12 0 .218-.011.219-.164V18.34c0-.153-.105-.163-.219-.165h-.056v-.119h.013c.088 0 .204.003.33.006.147.003.307.006.449.006.138 0 .296-.003.444-.006.134-.003.26-.006.359-.006h.013v.176c0 .108 0 .227.01.317v.01h-.011l-.11.029v-.017c-.02-.203-.047-.356-.37-.356h-.428v.794h.356c.18 0 .213-.095.238-.263v-.013h.118v.014c0 .059-.002.12-.005.18a4.831 4.831 0 0 0-.004.186c0 .122 0 .238.01.356v.01h-.013l-.109.022v-.014l-.003-.025c-.019-.176-.03-.272-.234-.274h-.356v.712c0 .189.161.19.362.19h.007c.377 0 .528-.02.623-.372v-.013h.013l.1.026v.013c-.041.166-.079.331-.107.497v.011l-.01.013Zm1.084-1.152c.31 0 .466-.111.475-.474a.415.415 0 0 0-.445-.445c-.055 0-.11.005-.165.012v.909l.135-.002Zm1.307 1.158a2.65 2.65 0 0 1-.156-.006c-.05-.003-.1-.006-.152-.006-.043 0-.084.002-.125.004a1.889 1.889 0 0 1-.18.003 8.993 8.993 0 0 1-.649-1.01h-.185v.66c0 .236.099.236.243.236h.07v.119h-.014c-.089 0-.177-.003-.266-.006a8.102 8.102 0 0 0-.272-.006c-.074 0-.147.003-.221.006a5.681 5.681 0 0 1-.234.006h-.013v-.119h.07c.113 0 .208-.05.21-.155v-1.598c0-.216-.107-.22-.203-.224H12.428v-.119h.01c.043 0 .102.003.17.005.095.003.206.007.316.007.099 0 .185-.003.27-.006.077-.003.153-.006.234-.006.395 0 .76.11.76.565 0 .282-.187.46-.429.558l.527.788a.336.336 0 0 0 .294.182h.012v.118l-.01.004Zm.741-2.186.423.477-.427-.477h.004Zm1.559.291Zm.014 1.939h-.128l-1.59-1.772v1.254c0 .272.045.355.28.355h.064v.119h-.015a4.54 4.54 0 0 1-.202-.006c-.067-.003-.134-.006-.2-.006-.067 0-.137.003-.208.006a5.36 5.36 0 0 1-.219.006h-.014v-.119h.057c.208 0 .267-.134.27-.384v-1.325a.268.268 0 0 0-.272-.268h-.055v-.119h.014c.06 0 .119.003.178.006.06.003.119.006.178.006.039 0 .077-.002.117-.004.054-.003.11-.006.17-.004l1.387 1.55v-1.154c0-.249-.169-.28-.26-.28h-.082v-.12h.013c.075 0 .148.003.221.006.073.003.145.006.218.006.075 0 .14-.003.205-.006a3.66 3.66 0 0 1 .18-.006h.015v.12h-.06c-.13 0-.264.013-.266.383v1.424a1.9 1.9 0 0 0 .019.314v.015l-.015.003Zm.737-.27a1.306 1.306 0 0 1 0 .004v-.004Zm.247-.754h.549l-.273-.84-.276.84Zm1.492.976c-.141-.005-.282-.011-.432-.011-.15 0-.31 0-.474.011h-.015v-.118h.048c.073 0 .18-.017.181-.077a.996.996 0 0 0-.063-.22l-.118-.357h-.692l-.094.306-.003.011c-.03.077-.054.156-.069.237 0 .077.119.096.222.096h.049v.119h-.015a8.014 8.014 0 0 0-.378-.012c-.124 0-.225 0-.338.012h-.014v-.119h.032a.27.27 0 0 0 .26-.194l.501-1.438c.049-.13.09-.263.125-.397.099-.036.194-.08.284-.134a.068.068 0 0 1 .03-.007c.007 0 .014 0 .02.004a.035.035 0 0 1 .015.014 1.877 1.877 0 0 1 .028.078l.576 1.64.019.052c.031.093.063.187.1.265a.183.183 0 0 0 .195.119h.03v.118l-.01.002Zm-.126-1.799c.04-.187.048-.225.261-.226v.001h.5v1.66c-.004.25-.074.25-.247.25h-.074v.119h.014c.056 0 .13-.003.212-.005.102-.004.215-.007.319-.007.09 0 .198.003.296.006.083.003.16.006.213.006l.02-.006v-.12h-.073c-.15-.001-.247-.017-.247-.254v-1.656h.501c.198 0 .21.17.218.288v.018l.11-.04h.01v-.064c0-.067-.002-.132.006-.198.01-.084.021-.169.034-.253v-.014l-.089-.014h-.014v.014c-.005.085-.069.085-.155.085H19.426c-.077-.002-.132-.004-.154-.082v-.01h-.1v.015c0 .089-.006.177-.018.265-.007.068-.017.135-.027.202l-.01.063v.016h.118v-.011l.01-.048Zm3.136 1.8c-.075 0-.16-.003-.244-.006a7.458 7.458 0 0 0-.252-.006c-.083 0-.173.003-.257.006a5.881 5.881 0 0 1-.204.005h-.013v-.118h.058c.113 0 .217-.012.217-.165V18.34c0-.153-.104-.163-.217-.165h-.058v-.119h.013c.055 0 .128.003.204.006.087.003.18.006.26.006.076 0 .162-.003.248-.006s.17-.006.245-.006h.012v.12h-.056c-.118 0-.218.011-.22.164v1.642c0 .153.105.163.22.165h.056v.118l-.012.002Zm1.245-2.259v.012-.012a1.156 1.156 0 0 0-1.17 1.17h.001c0 .682.515 1.139 1.186 1.139a1.164 1.164 0 0 0 1.197-1.214c-.001-.676-.541-1.095-1.213-1.095Zm.047 2.144c.593 0 .698-.522.7-.98 0-.458-.245-.998-.754-.999-.537 0-.696.475-.698.896 0 .557.256 1.081.752 1.083Zm3.445.162h-.13l-1.59-1.772v1.254c0 .272.046.355.28.355h.068v.119h-.013c-.068 0-.136-.003-.203-.006s-.135-.006-.201-.006-.136.003-.208.006c-.073.003-.147.006-.22.006h-.01v-.119h.058c.206 0 .266-.134.268-.383v-1.326a.269.269 0 0 0-.168-.249.267.267 0 0 0-.104-.019h-.054v-.119h.013c.06 0 .122.004.182.007s.118.005.174.005c.038 0 .076-.002.114-.004.056-.003.113-.006.175-.003l1.377 1.55v-1.155c0-.249-.168-.279-.26-.28h-.081v-.12h.014c.074 0 .147.003.22.006a4.094 4.094 0 0 0 .41 0c.064-.003.129-.006.194-.006h.013v.12h-.054c-.13 0-.262.015-.266.383v1.424c-.002.105.004.21.018.314v.015l-.016.003Zm2.494-.167v.118l-.012.002c-.07 0-.14-.003-.21-.006-.073-.003-.146-.006-.222-.006-.109 0-.223.003-.341.007l-.133.005h-.008v-.119h.05c.071 0 .18-.017.18-.077a.936.936 0 0 0-.064-.22l-.118-.357h-.692l-.097.317c-.03.077-.053.156-.068.237 0 .078.12.096.221.096h.048v.119h-.013c-.064 0-.127-.003-.19-.006a3.983 3.983 0 0 0-.189-.006c-.092 0-.17.004-.25.008h-.012l-.076.004h-.014v-.119h.032a.27.27 0 0 0 .26-.194l.501-1.438.016-.045c.038-.11.083-.243.103-.352.099-.036.194-.08.285-.134a.066.066 0 0 1 .03-.007c.006-.001.013 0 .02.003a.034.034 0 0 1 .014.015l.028.078.577 1.64.018.053c.032.093.064.187.1.265a.183.183 0 0 0 .194.119h.032Zm-.804-.499-.057-.168h.002l.055.168Zm-.7-.358h.549l-.273-.838-.275.838Zm3.257.976c-.138 0-.276-.002-.414-.005-.138-.003-.277-.006-.417-.006-.139 0-.277.003-.415.006-.138.003-.276.005-.415.005h-.013v-.118h.063c.119 0 .22-.01.223-.196V18.34c0-.153-.11-.163-.223-.165h-.057v-.119h.013c.084 0 .166.003.249.006a6.28 6.28 0 0 0 .49 0c.076-.003.153-.006.231-.006h.012v.12h-.091c-.119 0-.197 0-.2.155v1.616c0 .119.078.149.176.163l.087.003.086.003c.08 0 .159-.004.237-.012a.437.437 0 0 0 .292-.164.703.703 0 0 0 .095-.222v-.01h.119v.017c-.023.117-.05.233-.077.348a21.37 21.37 0 0 0-.042.185v.01h-.01Zm.063-1.957h-.04v-.156h.037c.01 0 .019.001.027.005a.061.061 0 0 1 .037.04.062.062 0 0 1 .001.027c0 .052-.02.084-.063.084Zm-.15.158v.016l.159.004v-.017l-.011-.002c-.03-.004-.038-.005-.038-.024v-.11h.037c.019.027.034.052.048.073.03.048.05.08.07.08h.065v-.011a.368.368 0 0 1-.073-.078l-.054-.075a.102.102 0 0 0 .078-.1c0-.06-.053-.087-.111-.087h-.169v.013c.046-.003.046.01.046.044v.244c0 .03-.007.03-.047.03Zm.315.068a.27.27 0 1 1-.289-.455.27.27 0 0 1 .29.455Zm.032-.502a.33.33 0 0 0-.31-.031.327.327 0 0 0-.147.49.33.33 0 1 0 .457-.459Z" fill="#231F20"/>
    <path d="M11.87 7.004a5.308 5.308 0 1 1 10.616 0 5.308 5.308 0 0 1-10.615 0Z" fill="#fff"/>
    <path d="M17.182 12.407c-3.041.015-5.545-2.45-5.545-5.449.004-3.278 2.508-5.546 5.545-5.546h1.424c3.005 0 5.749 2.266 5.749 5.545 0 2.999-2.744 5.45-5.75 5.45h-1.423Zm.012-10.54a5.033 5.033 0 1 0-.007 10.066 5.033 5.033 0 0 0 .01-10.065h-.003Zm-1.139 8.01V3.923a3.187 3.187 0 0 0 0 5.952Zm4.33-2.977a3.192 3.192 0 0 0-2.049-2.977v5.954A3.19 3.19 0 0 0 20.385 6.9Z" fill="#126BAC"/>
  </g>
  <defs>
    <clipPath id="a">
      <path d="M0 3.004a3 3 0 0 1 3-3h30a3 3 0 0 1 3 3v16a3 3 0 0 1-3 3H3a3 3 0 0 1-3-3v-16Z" fill="#fff"/>
    </clipPath>
  </defs>
</svg>
