<svg width="36" height="23" viewBox="0 0 36 23" fill="none" xmlns="http://www.w3.org/2000/svg">
<path d="M0 3.79492C0 2.13807 1.34315 0.794922 3 0.794922H33C34.6569 0.794922 36 2.13807 36 3.79492V19.7949C36 21.4518 34.6569 22.7949 33 22.7949H3C1.34315 22.7949 0 21.4518 0 19.7949V3.79492Z" fill="white" fill-opacity="0.8"/>
<path d="M14.1265 18.089H21.8665V5.49902H14.1265V18.079V18.089Z" fill="#7773B4"/>
<path d="M14.9264 11.7989C14.9228 10.5855 15.1977 9.38736 15.7299 8.29686C16.2622 7.20637 17.0376 6.25257 17.9964 5.5089C16.4505 4.29216 14.5113 3.68607 12.5476 3.80592C10.584 3.92577 8.73289 4.76319 7.34642 6.1589C6.60384 6.89847 6.01461 7.7774 5.61256 8.74526C5.21051 9.71312 5.00354 10.7509 5.00354 11.7989C5.00354 12.8469 5.21051 13.8847 5.61256 14.8525C6.01461 15.8204 6.60384 16.6993 7.34642 17.4389C8.73289 18.8346 10.584 19.672 12.5476 19.7919C14.5113 19.9117 16.4505 19.3056 17.9964 18.0889C17.0426 17.3407 16.2708 16.3859 15.739 15.2965C15.2073 14.207 14.9295 13.0112 14.9264 11.7989Z" fill="#EA1D25"/>
<path d="M30.9965 11.7989C30.9965 13.9189 30.1565 15.9489 28.6565 17.4489C27.2594 18.8302 25.408 19.6567 23.4469 19.7744C21.4858 19.8922 19.5487 19.2932 17.9965 18.0889C18.9487 17.3392 19.7193 16.3842 20.2508 15.295C20.7824 14.2059 21.0612 13.0108 21.0665 11.7989C21.0678 10.5859 20.792 9.38853 20.2599 8.29839C19.7278 7.20824 18.9536 6.25413 17.9965 5.50892C19.5419 4.2881 21.4825 3.67862 23.4485 3.79665C25.4144 3.91468 27.2682 4.75197 28.6565 6.14892C29.4011 6.88892 29.9913 7.7694 30.393 8.73928C30.7947 9.70917 30.9998 10.7492 30.9965 11.7989Z" fill="#139FDA"/>
</svg>
