<svg width="360" height="230" viewBox="0 0 36 23" fill="none" xmlns="http://www.w3.org/2000/svg">
<path d="M0 3.79492C0 2.13807 1.34315 0.794922 3 0.794922H33C34.6569 0.794922 36 2.13807 36 3.79492V19.7949C36 21.4518 34.6569 22.7949 33 22.7949H3C1.34315 22.7949 0 21.4518 0 19.7949V3.79492Z" fill="white" fill-opacity="0.8"/>
<rect x="14.2137" y="4.99121" width="7.57116" height="13.6065" fill="#FF5F00"/>
<path d="M14.6945 11.7957C14.6917 9.14014 15.9104 6.63085 17.9994 4.99126C14.4517 2.20317 9.35707 2.60928 6.29589 5.92419C3.2347 9.2391 3.2347 14.3499 6.29589 17.6648C9.35707 20.9797 14.4517 21.3858 17.9994 18.5977C15.9111 16.9586 14.6924 14.4504 14.6945 11.7957Z" fill="#EB001B"/>
<path d="M32 11.7957C31.9999 15.1085 30.1082 18.1306 27.1284 19.5783C24.1486 21.026 20.6037 20.6452 17.9993 18.5977C20.0867 16.9572 21.3055 14.4493 21.3055 11.7944C21.3055 9.13959 20.0867 6.63168 17.9993 4.99122C20.6037 2.94367 24.1486 2.56289 27.1284 4.0106C30.1082 5.45832 31.9999 8.48035 32 11.7932V11.7957Z" fill="#F79E1B"/>
<path fill-rule="evenodd" clip-rule="evenodd" d="M31.865 16.8193V17.2259L31.805 17.2288V16.921L31.6937 17.1853H31.6167L31.5053 16.921V17.2259H31.4311V16.8193H31.5225L31.6423 17.1098L31.7622 16.8193H31.865ZM31.2056 16.8891V17.226H31.1457V16.8891H31.0001V16.8194H31.3398V16.8891H31.2056Z" fill="#F79E1B"/>
</svg>
