<?xml version="1.0" encoding="UTF-8"?>
<svg id="Icons" xmlns="http://www.w3.org/2000/svg" viewBox="0 0 1010.03 381.21">
  <g>
    <path d="m306.48,122.07h-.16l-8.86,4.78-1.33-5.25,11.13-5.96h5.88v50.94h-6.66v-44.51Z"/>
    <path d="m347.94,167.45c-9.95,0-16.77-9.33-16.93-26.18,0-17.16,7.45-26.49,17.79-26.49s16.85,9.56,16.85,25.78c0,17.32-6.5,26.88-17.63,26.88h-.08Zm.39-5.33c6.98,0,10.34-8.23,10.34-21.24s-3.13-20.77-10.34-20.77c-6.27,0-10.34,7.99-10.34,20.77-.16,13.24,3.92,21.24,10.27,21.24h.08Z"/>
    <path d="m388.14,167.45c-9.95,0-16.77-9.33-16.93-26.18,0-17.16,7.45-26.49,17.79-26.49s16.85,9.56,16.85,25.78c0,17.32-6.5,26.88-17.63,26.88h-.08Zm.39-5.33c6.97,0,10.34-8.23,10.34-21.24s-3.13-20.77-10.34-20.77c-6.27,0-10.34,7.99-10.34,20.77-.16,13.24,3.92,21.24,10.27,21.24h.08Z"/>
    <path d="m423.32,114.78c7.05,0,11.68,5.49,11.68,15.2,0,10.66-5.56,15.99-12.15,15.99s-11.83-5.09-11.91-15.28c0-10.19,5.49-15.91,12.3-15.91h.08Zm-.39,4.15c-4.23,0-6.58,5.09-6.58,11.52-.16,6.43,2.35,11.36,6.66,11.36,4.54,0,6.58-4.78,6.58-11.52,0-6.19-1.8-11.36-6.58-11.36h-.08Zm-.63,48.59l30.02-52.82h4.39l-30.02,52.82h-4.39Zm34.25-31.66c7.05,0,11.68,5.41,11.68,15.12,0,10.82-5.56,16.14-12.15,16.14s-11.83-5.17-11.91-15.36c0-10.27,5.49-15.91,12.3-15.91h.08Zm-.39,4.15c-4.23,0-6.58,5.02-6.58,11.44-.16,6.5,2.35,11.52,6.66,11.52,4.54,0,6.58-4.86,6.58-11.68,0-6.19-1.8-11.29-6.58-11.29h-.08Z"/>
    <path d="m492.36,158.28c3.06,1.88,7.45,3.37,12.15,3.37,6.97,0,11.05-3.6,11.05-8.93,0-4.94-2.82-7.84-9.95-10.5-8.62-2.98-13.95-7.52-13.95-14.89,0-8.23,6.82-14.34,17.08-14.34,5.33,0,9.33,1.25,11.6,2.51l-1.88,5.64c-1.65-1.02-5.17-2.51-9.95-2.51-7.21,0-9.95,4.31-9.95,7.92,0,4.86,3.21,7.29,10.5,10.11,8.93,3.53,13.4,7.76,13.4,15.52s-5.96,15.2-18.42,15.2c-5.09,0-10.66-1.57-13.48-3.45l1.8-5.64Z"/>
    <path d="m536.01,148.87c.16,9.25,6.03,13.09,12.93,13.09,4.94,0,7.99-.86,10.5-1.96l1.25,4.94c-2.43,1.1-6.66,2.43-12.7,2.43-11.6,0-18.65-7.76-18.65-19.12s6.82-20.45,17.87-20.45c12.38,0,15.6,10.89,15.6,17.87,0,1.41-.08,2.43-.23,3.21h-26.57Zm20.14-4.94c.08-4.39-1.8-11.21-9.48-11.21-7.05,0-10.03,6.43-10.58,11.21h20.06Z"/>
    <path d="m598.38,165.17c-1.8.86-5.8,2.19-10.89,2.19-11.44,0-18.89-7.76-18.89-19.36s7.99-20.22,20.38-20.22c4.08,0,7.68,1.02,9.56,2.04l-1.57,5.25c-1.65-.86-4.23-1.8-7.99-1.8-8.7,0-13.4,6.5-13.4,14.34,0,8.78,5.64,14.19,13.17,14.19,3.92,0,6.5-.94,8.46-1.8l1.17,5.17Z"/>
    <path d="m638.19,156.16c0,4,.08,7.44.31,10.42h-6.11l-.39-6.19h-.16c-1.72,3.06-5.8,7.05-12.54,7.05-5.96,0-13.09-3.37-13.09-16.61v-22.18h6.9v20.92c0,7.21,2.27,12.15,8.46,12.15,4.62,0,7.84-3.21,9.09-6.35.39-.94.63-2.19.63-3.53v-23.2h6.9v27.51Z"/>
    <path d="m649.63,140.49c0-4.47-.08-8.31-.31-11.83h6.04l.31,7.45h.24c1.72-5.09,5.96-8.31,10.58-8.31.71,0,1.25.08,1.88.16v6.5c-.71-.08-1.41-.16-2.35-.16-4.86,0-8.31,3.68-9.25,8.78-.16,1.02-.24,2.12-.24,3.21v20.3h-6.9v-26.1Z"/>
    <path d="m678.39,148.87c.16,9.25,6.03,13.09,12.93,13.09,4.94,0,7.99-.86,10.5-1.96l1.25,4.94c-2.43,1.1-6.66,2.43-12.7,2.43-11.6,0-18.65-7.76-18.65-19.12s6.82-20.45,17.87-20.45c12.38,0,15.59,10.89,15.59,17.87,0,1.41-.08,2.43-.24,3.21h-26.57Zm20.14-4.94c.08-4.39-1.8-11.21-9.48-11.21-7.05,0-10.03,6.43-10.58,11.21h20.06Z"/>
    <path d="m730.58,114.47c3.29-.63,7.6-1.1,13.09-1.1,6.74,0,11.68,1.57,14.81,4.39,2.9,2.51,4.7,6.35,4.7,10.97s-1.41,8.54-4.15,11.29c-3.61,3.84-9.48,5.8-16.14,5.8-2.04,0-3.92-.08-5.49-.47v21.24h-6.82v-52.12Zm6.82,25.31c1.49.39,3.37.55,5.64.55,8.23,0,13.24-4,13.24-11.21s-4.94-10.34-12.46-10.34c-2.98,0-5.25.23-6.43.55v20.45Z"/>
    <path d="m796.73,157.49c0,3.29.16,6.5.55,9.09h-6.19l-.63-4.78h-.24c-2.04,2.98-6.19,5.64-11.6,5.64-7.68,0-11.6-5.41-11.6-10.89,0-9.17,8.15-14.18,22.81-14.11v-.78c0-3.13-.86-8.86-8.62-8.78-3.61,0-7.29,1.02-9.95,2.82l-1.57-4.62c3.13-1.96,7.76-3.29,12.54-3.29,11.68,0,14.5,7.92,14.5,15.52v14.18Zm-6.74-10.27c-7.52-.16-16.07,1.18-16.07,8.54,0,4.55,2.98,6.58,6.43,6.58,5.02,0,8.23-3.13,9.33-6.35.24-.71.31-1.49.31-2.19v-6.58Z"/>
    <path d="m809.65,128.65l8.23,22.41c.94,2.51,1.88,5.49,2.51,7.76h.16c.71-2.27,1.49-5.17,2.43-7.92l7.52-22.26h7.29l-10.34,27.04c-4.94,13.01-8.31,19.59-13.01,23.75-3.45,2.9-6.74,4.08-8.46,4.39l-1.72-5.72c1.72-.55,4-1.65,6.03-3.37,1.88-1.49,4.15-4.15,5.8-7.68.31-.71.55-1.25.55-1.65s-.16-.94-.55-1.8l-13.95-34.95h7.52Z"/>
    <path d="m844.06,138.92c0-4-.16-7.13-.31-10.27h6.04l.31,6.11h.24c2.12-3.6,5.64-6.98,11.99-6.98,5.09,0,9.01,3.13,10.66,7.6h.16c1.18-2.19,2.74-3.76,4.31-4.94,2.27-1.72,4.7-2.67,8.31-2.67,5.09,0,12.54,3.29,12.54,16.46v22.33h-6.74v-21.47c0-7.37-2.74-11.68-8.23-11.68-4,0-6.97,2.9-8.23,6.19-.31,1.02-.55,2.27-.55,3.45v23.51h-6.74v-22.81c0-6.03-2.67-10.34-7.92-10.34-4.23,0-7.45,3.45-8.54,6.9-.39,1.02-.55,2.19-.55,3.37v22.88h-6.74v-27.66Z"/>
    <path d="m913.33,148.87c.16,9.25,6.03,13.09,12.93,13.09,4.94,0,7.99-.86,10.5-1.96l1.25,4.94c-2.43,1.1-6.66,2.43-12.7,2.43-11.6,0-18.65-7.76-18.65-19.12s6.82-20.45,17.87-20.45c12.38,0,15.6,10.89,15.6,17.87,0,1.41-.08,2.43-.23,3.21h-26.57Zm20.14-4.94c.08-4.39-1.8-11.21-9.48-11.21-7.05,0-10.03,6.43-10.58,11.21h20.06Z"/>
    <path d="m948.67,138.92c0-4-.08-7.13-.31-10.27h6.11l.39,6.19h.16c1.88-3.53,6.27-7.05,12.54-7.05,5.25,0,13.4,3.13,13.4,16.14v22.65h-6.9v-21.87c0-6.11-2.27-11.29-8.78-11.29-4.47,0-7.99,3.21-9.25,7.05-.31.86-.47,2.12-.47,3.21v22.88h-6.9v-27.66Z"/>
    <path d="m1000.16,119.56v9.09h9.87v5.25h-9.87v20.38c0,4.7,1.33,7.37,5.17,7.37,1.88,0,2.98-.16,4-.47l.31,5.25c-1.33.47-3.45.94-6.11.94-3.21,0-5.8-1.1-7.45-2.9-1.88-2.12-2.67-5.49-2.67-9.95v-20.61h-5.88v-5.25h5.88v-6.97l6.74-2.12Z"/>
    <path d="m410.82,252.31c3.06,1.88,7.45,3.37,12.15,3.37,6.97,0,11.05-3.6,11.05-8.93,0-4.94-2.82-7.84-9.95-10.5-8.62-2.98-13.95-7.52-13.95-14.89,0-8.23,6.82-14.34,17.08-14.34,5.33,0,9.33,1.25,11.6,2.51l-1.88,5.64c-1.65-1.02-5.17-2.51-9.95-2.51-7.21,0-9.95,4.31-9.95,7.92,0,4.86,3.21,7.29,10.5,10.11,8.93,3.53,13.4,7.76,13.4,15.52s-5.96,15.2-18.42,15.2c-5.09,0-10.66-1.57-13.48-3.45l1.8-5.64Z"/>
    <path d="m449.46,252.31c3.06,1.88,7.45,3.37,12.15,3.37,6.97,0,11.05-3.6,11.05-8.93,0-4.94-2.82-7.84-9.95-10.5-8.62-2.98-13.95-7.52-13.95-14.89,0-8.23,6.82-14.34,17.08-14.34,5.33,0,9.33,1.25,11.6,2.51l-1.88,5.64c-1.65-1.02-5.17-2.51-9.95-2.51-7.21,0-9.95,4.31-9.95,7.92,0,4.86,3.21,7.29,10.5,10.11,8.93,3.53,13.4,7.76,13.4,15.52s-5.96,15.2-18.42,15.2c-5.09,0-10.66-1.57-13.48-3.45l1.8-5.64Z"/>
    <path d="m488.87,207.8h6.9v47.1h22.57v5.72h-29.47v-52.82Z"/>
    <path d="m546.23,242.91c.16,9.25,6.03,13.09,12.93,13.09,4.94,0,7.99-.86,10.5-1.96l1.25,4.94c-2.43,1.1-6.66,2.43-12.7,2.43-11.6,0-18.65-7.76-18.65-19.12s6.82-20.45,17.87-20.45c12.38,0,15.6,10.89,15.6,17.87,0,1.41-.08,2.43-.23,3.21h-26.57Zm20.14-4.94c.08-4.39-1.8-11.21-9.48-11.21-7.05,0-10.03,6.43-10.58,11.21h20.06Z"/>
    <path d="m581.58,232.96c0-4-.08-7.13-.31-10.27h6.11l.39,6.19h.16c1.88-3.53,6.27-7.05,12.54-7.05,5.25,0,13.4,3.13,13.4,16.14v22.65h-6.9v-21.87c0-6.11-2.27-11.29-8.78-11.29-4.47,0-7.99,3.21-9.25,7.05-.31.86-.47,2.12-.47,3.21v22.88h-6.9v-27.66Z"/>
    <path d="m652.1,259.21c-1.8.86-5.8,2.2-10.89,2.2-11.44,0-18.89-7.76-18.89-19.36s7.99-20.22,20.38-20.22c4.08,0,7.68,1.02,9.56,2.04l-1.57,5.25c-1.65-.86-4.23-1.8-7.99-1.8-8.7,0-13.4,6.5-13.4,14.34,0,8.78,5.64,14.19,13.17,14.19,3.92,0,6.5-.94,8.46-1.8l1.17,5.17Z"/>
    <path d="m660.18,234.53c0-4.47-.08-8.31-.31-11.83h6.03l.31,7.45h.23c1.72-5.09,5.96-8.31,10.58-8.31.71,0,1.25.08,1.88.16v6.5c-.71-.08-1.41-.16-2.35-.16-4.86,0-8.31,3.68-9.25,8.78-.16,1.02-.24,2.12-.24,3.21v20.3h-6.9v-26.1Z"/>
    <path d="m690.27,222.69l8.23,22.41c.94,2.51,1.88,5.49,2.51,7.76h.16c.71-2.27,1.49-5.17,2.43-7.92l7.52-22.26h7.29l-10.34,27.04c-4.94,13.01-8.31,19.59-13.01,23.75-3.45,2.9-6.74,4.08-8.46,4.39l-1.72-5.72c1.72-.55,4-1.65,6.03-3.37,1.88-1.49,4.15-4.15,5.8-7.68.31-.71.55-1.25.55-1.65s-.16-.94-.55-1.8l-13.95-34.95h7.52Z"/>
    <path d="m724.67,235.07c0-4.86-.08-8.78-.31-12.38h6.19l.39,6.5h.16c2.74-4.7,7.29-7.37,13.4-7.37,9.25,0,16.14,7.76,16.14,19.28,0,13.64-8.39,20.38-17.24,20.38-5.09,0-9.4-2.19-11.68-5.96h-.16v20.61h-6.9v-41.06Zm6.9,10.11c0,.94.08,1.96.31,2.82,1.18,4.78,5.41,8.07,10.27,8.07,7.29,0,11.52-5.96,11.52-14.65,0-7.6-3.92-14.11-11.21-14.11-4.7,0-9.17,3.29-10.5,8.54-.16.86-.39,1.88-.39,2.74v6.58Z"/>
    <path d="m777.56,213.6v9.09h9.87v5.25h-9.87v20.38c0,4.7,1.33,7.37,5.17,7.37,1.88,0,2.98-.16,4-.47l.31,5.25c-1.33.47-3.45.94-6.11.94-3.21,0-5.8-1.1-7.44-2.9-1.88-2.12-2.67-5.49-2.67-9.95v-20.61h-5.88v-5.25h5.88v-6.97l6.74-2.12Z"/>
    <path d="m798.49,216.27c-2.51,0-4.15-1.96-4.15-4.23,0-2.43,1.72-4.31,4.31-4.31s4.23,1.88,4.23,4.31c0,2.27-1.65,4.23-4.31,4.23h-.08Zm-3.29,44.36v-37.93h6.9v37.93h-6.9Z"/>
    <path d="m828.97,261.48c-10.19,0-18.18-7.52-18.18-19.51,0-12.7,8.39-20.14,18.81-20.14s18.26,7.92,18.26,19.44c0,14.11-9.8,20.22-18.81,20.22h-.08Zm.31-5.17c6.58,0,11.52-6.19,11.52-14.81,0-6.43-3.21-14.5-11.36-14.5s-11.6,7.52-11.6,14.73c0,8.31,4.7,14.58,11.36,14.58h.08Z"/>
    <path d="m856.55,232.96c0-4-.08-7.13-.31-10.27h6.11l.39,6.19h.16c1.88-3.53,6.27-7.05,12.54-7.05,5.25,0,13.4,3.13,13.4,16.14v22.65h-6.9v-21.87c0-6.11-2.27-11.29-8.78-11.29-4.47,0-7.99,3.21-9.25,7.05-.31.86-.47,2.12-.47,3.21v22.88h-6.9v-27.66Z"/>
  </g>
  <g>
    <rect y="131" width="250.21" height="250.21" rx="31.28" ry="31.28" style="fill: #f4bc2f;"/>
    <path d="m101.93,308.23c-2.76,0-5.42-1.1-7.37-3.05l-18.53-18.53c-4-4.14-3.89-10.74.26-14.74,4.04-3.9,10.44-3.9,14.48,0l10.19,10.18,57.62-74.08c3.64-4.47,10.2-5.14,14.67-1.5,4.33,3.52,5.11,9.83,1.78,14.31l-64.88,83.4c-1.82,2.37-4.58,3.84-7.57,4.02h-.66Z" style="fill: #fff;"/>
    <path d="m125.1,0C84.79,0,52.12,32.67,52.12,72.98v83.4h41.7v-83.4c0-17.27,14-31.28,31.28-31.28s31.28,14,31.28,31.28v83.4h41.7v-83.4C198.08,32.67,165.4,0,125.1,0Z" style="fill: #f4bc2f;"/>
  </g>
</svg>