<?xml version="1.0" encoding="utf-8"?>
<svg xmlns="http://www.w3.org/2000/svg" xmlns:xlink="http://www.w3.org/1999/xlink" version="1.1" id="Layer_1" x="0px" y="0px" viewBox="0 0 27 27" style="enable-background:new 0 0 27 27;">
<style type="text/css">
	.st0{opacity:1;  fill:white;stroke:#2048c6;}
	.st1{opacity:1;  fill:#f68d22;stroke:#0D101A;}
	.st2{opacity:0.5;fill:#f68d22;stroke:#0D101A;}
</style>
<g>
	<path class="st0" d="M15.6,23.7c0,1.3-1.1,2.4-2.4,2.4H5.4C4.1,26.1,3,25,3,23.7V3.3C3,2,4.1,0.9,5.4,0.9h7.8&#xA;		c1.3,0,2.4,1.1,2.4,2.4V23.7z"/>
</g>
<g>
	<path class="st2" d="M14.2,18.3l-2,0.6c-0.8,0.2-1.6-0.2-1.8-1l-1.7-6c-0.2-0.8,0.2-1.6,1-1.8l4.5-1.3"/>
</g>
<g>
	<path class="st1" d="M17.2,7.9l3.7-1c0.8-0.2,1.6,0.2,1.8,1l1.7,6c0.2,0.8-0.2,1.6-1,1.8l-6.2,1.8"/>
</g>
</svg>